<?xml version="1.0" standalone="no"?><!DOCTYPE svg PUBLIC "-//W3C//DTD SVG 1.1//EN" "http://www.w3.org/Graphics/SVG/1.1/DTD/svg11.dtd"><svg t="1689745710239" class="icon" viewBox="0 0 1024 1024" version="1.1" xmlns="http://www.w3.org/2000/svg" p-id="7665" xmlns:xlink="http://www.w3.org/1999/xlink" width="200" height="200"><path d="M507.392 0l443.4176 256v512l-443.392 256L64 768V256L507.392 0zM276.6336 315.1104c-32.6656 0-55.5776 5.888-68.7616 17.7408-13.1584 11.8272-19.7376 33.7408-19.7376 65.7408v19.5072h77.0048V388.608c0-13.6704 4.6592-20.5056 14.0032-20.5056 5.9904 0 9.984 2.9952 11.9808 8.9856 1.024 3.0208 1.5104 9.6768 1.5104 20.0192v19.4816c0 17.3568-2.2528 27.8528-6.7584 31.488-4.5056 3.6864-16.0768 5.5296-34.7392 5.5296h-4.5056v49.9968c18.3296 0 30.1568 1.9968 35.5072 5.9904 6.9888 5.3504 10.496 17.9968 10.496 38.016v23.9872c0 18.3296-0.768 30.848-2.2528 37.504-1.5104 6.656-5.5808 9.984-12.2624 9.984-8.6528 0-12.9792-6.9888-12.9792-20.992v-54.016H188.1088v12.032l1.4848 41.472c0 24.6784 8.0128 43.264 24.0128 55.7568 16 12.5184 39.5008 18.7648 70.5024 18.7648 29.3376 0 51.328-8.6784 65.9968-26.0096 7.9872-9.3184 13.312-20.3264 16-32.9984 2.6624-12.672 3.9936-29.4912 3.9936-50.4832 0-30.6688-1.9968-52.096-5.9904-64.256-3.9936-12.16-13.6704-21.4272-29.0048-27.7504 10.6752-6.3488 18.176-13.0048 22.5024-19.9936 6.3232-10.0096 9.4976-24.832 9.4976-44.5184 0-31.6672-7.424-54.7328-22.272-69.248-14.8224-14.4896-37.5552-21.76-68.224-21.76z m230.912 0c-15.6928 0-29.8496 2.816-42.496 8.4992-12.6976 5.6576-22.528 13.4912-29.5168 23.5008-7.0144 9.984-11.5968 21.9136-13.7472 35.7376-2.176 13.824-3.2512 32.0768-3.2512 54.7584V558.08c0 21.3248 0.9984 37.7344 2.9952 49.2544 1.9968 11.4944 7.3216 22.912 16 34.2272 8.6784 11.3408 18.8416 19.2512 30.4896 23.7568 11.6736 4.5056 26.6752 6.7584 45.0048 6.7584 30.6688 0 53.6832-10.1632 69.0176-30.5152 10.3168-13.6448 16.3328-30.3104 17.9968-49.9968 0.1792-2.304 0.3328-7.68 0.4096-16l0.0512-145.3312a545.8176 545.8176 0 0 0-1.1776-35.4048l-0.768-8.4992a75.9552 75.9552 0 0 0-12.032-32.768c-6.9888-11.9808-17.408-21.4016-31.232-28.2368-13.824-6.8352-29.7472-10.24-47.7696-10.24z m230.4 0c-15.6928 0-29.8496 2.816-42.496 8.4992-12.6976 5.6576-22.528 13.4912-29.5168 23.5008-7.0144 9.984-11.5968 21.9136-13.7472 35.7376-2.176 13.824-3.2512 32.0768-3.2512 54.7584V558.08c0 21.3248 0.9984 37.7344 2.9952 49.2544 1.9968 11.4944 7.3216 22.912 16 34.2272 8.6784 11.3408 18.8416 19.2512 30.4896 23.7568 11.6736 4.5056 26.6752 6.7584 45.0048 6.7584 30.6688 0 53.6832-10.1632 69.0176-30.5152 10.3168-13.6448 16.3328-30.3104 17.9968-49.9968 0.1792-2.304 0.3328-7.68 0.4096-16l0.0512-145.3312a545.8176 545.8176 0 0 0-1.1776-35.4048l-0.768-8.4992a75.9552 75.9552 0 0 0-12.032-32.768c-6.9888-11.9808-17.408-21.4016-31.232-28.2368-13.824-6.8352-29.7472-10.24-47.7696-10.24z m-227.9168 52.992c5.9904 0 9.728 2.5088 11.264 7.5008 1.4848 4.992 2.2272 13.1584 2.2272 24.4992v184.6272c-0.1536 13.1584-0.896 22.016-2.2272 26.624-1.536 5.1712-5.4272 7.7568-11.776 7.7568-8.32 0-12.9792-5.6832-13.9776-16.9984v-206.0032c0-9.0112 1.0752-15.9232 3.2512-20.736a11.4176 11.4176 0 0 1 11.264-7.2704z m230.4 0c5.9904 0 9.728 2.5088 11.264 7.5008 1.28 4.2752 1.9968 10.9056 2.2016 19.84l0.0256 184.1664-0.1024 9.856-0.128 4.352c-0.3328 8.2432-1.024 14.08-1.9968 17.536-1.536 5.1712-5.4272 7.7568-11.776 7.7568-8.32 0-12.9792-5.6832-13.9776-16.9984v-206.0032l0.0768-4.352c0.3072-6.912 1.3568-12.3904 3.1744-16.384a11.4176 11.4176 0 0 1 11.264-7.2704z" fill="#f7bd7b" p-id="7666"></path></svg>